<svg width="914" height="400" fill="none" xmlns="http://www.w3.org/2000/svg"><path d="M440.712 212.692v-12.677l-9.128 9.138a26.07 26.07 0 0 0 2.783 1.704c.871.458 1.688.812 2.448 1.082.76.269 1.466.454 2.115.573a10.75 10.75 0 0 0 1.782.18Zm46.668-1.054c.016.014.105.089.269.193.165.105.406.24.726.373.319.133.718.265 1.2.362a8.4 8.4 0 0 0 1.695.164c.542 0 1.14-.048 1.796-.162a13.67 13.67 0 0 0 2.137-.565c.77-.269 1.597-.624 2.481-1.086a26.26 26.26 0 0 0 2.824-1.726l-6.927-6.785-22.957-23.044-10.074 10.076-13.589-14.013-34.104 33.719a26.24 26.24 0 0 0 2.821 1.726c.883.462 1.709.817 2.478 1.086.769.269 1.481.45 2.136.564.655.115 1.253.163 1.794.163.65 0 1.214-.065 1.695-.163.481-.098.88-.23 1.2-.363.32-.133.56-.268.724-.373.165-.105.254-.18.27-.194l15.396-15.395 5.505-5.28 15.246 15.246 5.326 5.477c.016.014.105.089.27.193.165.105.405.24.725.373.32.133.719.265 1.2.362a8.41 8.41 0 0 0 1.696.164c.541 0 1.14-.048 1.795-.162a13.709 13.709 0 0 0 2.138-.565 18.676 18.676 0 0 0 2.48-1.086 26.26 26.26 0 0 0 2.824-1.726l-12.234-11.98 2.278-2.277 10.586 10.587 6.174 6.117Zm-.132-63.851 30.076 52.106L487.248 252h-60.172L397 199.893l30.076-52.106h60.172Z" fill="#0D597F"/><path d="M440.712 212.692v-12.677l-9.128 9.138a26.07 26.07 0 0 0 2.783 1.704c.871.458 1.688.812 2.448 1.082.76.269 1.466.454 2.115.573a10.75 10.75 0 0 0 1.782.18Z" fill="#fff"/><path d="M487.38 211.638c.016.014.105.089.269.193.165.105.406.24.726.373.319.133.718.265 1.2.362a8.4 8.4 0 0 0 1.695.164c.542 0 1.14-.048 1.796-.162a13.67 13.67 0 0 0 2.137-.565c.77-.269 1.597-.624 2.481-1.086a26.26 26.26 0 0 0 2.824-1.726l-6.927-6.785-22.957-23.044-10.074 10.076-13.589-14.013-34.104 33.719a26.24 26.24 0 0 0 2.821 1.726c.883.462 1.709.817 2.478 1.086.769.269 1.481.45 2.136.564.655.115 1.253.163 1.794.163.65 0 1.214-.065 1.695-.163.481-.098.88-.23 1.2-.363.32-.133.56-.268.724-.373.165-.105.254-.18.27-.194l15.396-15.395 5.505-5.28 15.246 15.246 5.326 5.477c.016.014.105.089.27.193.165.105.405.24.725.373.32.133.719.265 1.2.362a8.41 8.41 0 0 0 1.696.164c.541 0 1.14-.048 1.795-.162a13.709 13.709 0 0 0 2.138-.565 18.676 18.676 0 0 0 2.48-1.086 26.26 26.26 0 0 0 2.824-1.726l-12.234-11.98 2.278-2.277 10.586 10.587 6.174 6.117Z" fill="#fff"/><path d="m468.482 197.355-8.011-7.996.57-.573 8.067 7.979-.626.59Z" fill="#0D597F"/></svg>